M48
;Layer_Color=9474304
;FILE_FORMAT=4:4
METRIC,LZ
;TYPE=PLATED
T1F00S00C0.3000
T2F00S00C0.8000
T3F00S00C1.0000
T4F00S00C1.0000
T5F00S00C1.0200
T6F00S00C1.1000
T7F00S00C1.2000
T8F00S00C1.5000
T9F00S00C1.7000
T10F00S00C4.2000
;TYPE=NON_PLATED
T11F00S00C3.5000
T12F00S00C4.0000
%
T01
X00725001Y00025
X00745001
X00765001
X00785001
X00805001
X00825001
X00845001
X00865001
X00885001
X00905001
X00925001
X00935001Y00045
X00915001
X00895001
X00875001
X00855001
X00835001
X00815001
X00795001
X00775001
X00755001
X00735001
X00715001
X00725001Y00065
X00745001
X00765001
X00785001
X00805001
X00825001
X00845001
X00865001
X00885001
X00905001
X00925001
X00935001Y00085
X00915001
X00895001
X00875001
X00855001
X00835001
X00815001
X00795001
X00775001
X00755001
X00735001
X00715001
X00725001Y00105
X00745001
X00765001
X00755001Y00125
X00735001
X00715001
X00855001
X00875001
X00895001
X00915001
X00935001
X00925001Y00105
X00905001
X00885001
X00865001
X00845001
X00945001
X00965001
X00985001
X01005001
X01025001
X01045001
X01065001
X01085001
X01105001
X01125001
X01145001
X01165001
X01185001
X01205001
X01225001
X01245001
X01265001
X01285001
X01305001
X01325001
X01315001Y00125
X01295001
X01275001
X01255001
X01235001
X01215001
X01195001
X01175001
X01155001
X01135001
X01115001
X01095001
X01075001
X01055001
X01035001
X01015001
X00995001
X00975001
X00955001
Y00085
X00975001
X00995001
X01015001
X01035001
X01055001
X01075001
X01095001
X01115001
X01135001
X01155001
X01175001
X01195001
X01215001
X01235001
X01255001
X01275001
X01295001
X01315001
X01325001Y00065
X01305001
X01285001
X01265001
X01245001
X01225001
X01205001
X01185001
X01165001
X01145001
X01125001
X01105001
X01085001
X01065001
X01045001
X01025001
X01005001
X00985001
X00965001
X00945001
X00955001Y00045
X00975001
X00995001
X01015001
X01035001
X01055001
X01075001
X01095001
X01115001
X01135001
X01155001
X01175001
X01195001
X01215001
X01235001
X01255001
X01265001Y00025
X01245001
X01225001
X01205001
X01185001
X01165001
X01145001
X01125001
X01105001
X01085001
X01065001
X01045001
X01025001
X01005001
X00985001
X00965001
X00945001
X01345001
X01365001
X01385001
X01405001
X01425001
X01445001
X01465001
X01485001
X01505001
X01525001
X01545001
X01565001
X01585001
X01605001
X01625001
X01645001
X01665001
X01685001
X01705001
X01725001
X01715001Y00045
X01695001
X01675001
X01655001
X01635001
X01615001
X01595001
X01575001
X01555001
X01535001
X01515001
X01495001
X01475001
X01455001
X01435001
X01415001
X01395001
X01375001
X01355001
X01365001Y00065
X01385001
X01405001
X01425001
X01445001
X01465001
X01485001
X01505001
X01525001
X01545001
X01565001
X01585001
X01605001
X01625001
X01645001
X01665001
X01685001
X01705001
X01725001
X01715001Y00085
X01695001
X01675001
X01655001
X01635001
X01615001
X01595001
X01575001
X01555001
X01535001
X01515001
X01495001
X01475001
X01455001
X01435001
X01415001
X01395001
X01375001
X01355001
X01335001
X01345001Y00105
X01365001
X01385001
X01405001
X01425001
X01445001
X01465001
X01485001
X01505001
X01525001
X01545001
X01565001
X01585001
X01605001
X01625001
X01645001
X01665001
X01685001
X01705001
X01725001
X01715001Y00125
X01695001
X01675001
X01655001
X01635001
X01615001
X01595001
X01575001
X01555001
X01535001
X01515001
X01495001
X01475001
X01455001
X01435001
X01415001
X01395001
X01375001
X01355001
X01335001
X01345001Y00065
X01745001
X01765001
X01785001
X01805001
X01825001
X01845001
X01865001
X01885001
X01905001
X01925001
X01945001
X01965001
X01955001Y00085
X01935001
X01915001
X01895001
X01875001
X01855001
X01835001
X01815001
X01795001
X01775001
X01755001
X01735001
X01745001Y00105
X01765001
X01785001
X01805001
X01825001
X01845001
X01865001
X01885001
X01905001
X01925001
X01945001
X01965001
X01955001Y00125
X01935001
X01915001
X01895001
X01875001
X01855001
X01835001
X01815001
X01795001
X01775001
X01755001
X01735001
Y00045
X01755001
X01775001
X01795001
X01815001
X01835001
X01855001
X01875001
X01895001
X01915001
X01935001
X01955001
X01945001Y00025
X01925001
X01905001
X01885001
X01865001
X01845001
X01825001
X01805001
X01785001
X01765001
X01745001
Y00145
X01765001
X01785001
X01805001
X01825001
X01845001
X01865001
X01885001
X01905001
X01925001
X01945001
X01965001
X01955001Y00165
X01935001
X01915001
X01895001
X01875001
X01855001
X01835001
X01815001
X01795001
X01775001
X01755001
X01735001
X01745001Y00185
X01765001
X01785001
X01805001
X01825001
X01845001
X01865001
X01885001
X01905001
X01925001
X01915001Y00205
X01895001
X01875001
X01855001
X01835001
X01815001
X01795001
X01775001
X01755001
X01735001
X01745001Y00225
X01765001
X01785001
X01805001
X01825001
X01845001
X01865001
X01885001
X01905001
X01925001
X01935001Y00245
X01955001
X01965001Y00265
X01945001
X01925001
X01905001
X01885001
X01865001
X01875001Y00285
Y00325
X01855001
X01835001
X01815001
X01795001
X01775001
X01755001
X01735001
X01745001Y00345
X01765001
X01785001
X01805001
X01825001
X01845001
X01865001
X01885001
X01905001
X01925001
X01945001
X01965001
X01955001Y00365
X01935001
X01945001Y00385
X01965001
X01955001Y00405
X01965001Y00425
X01955001Y00445
X01965001Y00465
X01955001Y00485
X01965001Y00505
X01948Y00528
X01921
X01895001Y00525
X01875001
X01855001
X01835001
X01815001
X01825001Y00505
X01845001
X01865001
X01875001Y00485
X01855001
X01835001
X01815001
X01805001Y00505
X01815001Y00445
X01835001
X01855001
X01875001
X01865001Y00425
X01845001
X01855001Y00405
X01875001
X01885001Y00385
X01875001Y00365
X01855001
X01835001
X01815001
X01795001
X01775001
X01755001
X01735001
X01745001Y00385
X01765001
X01785001
X01805001
X01825001
X01845001
X01815001Y00405
X01795001
X01775001
X01755001
X01735001
X01745001Y00425
X01765001
X01785001
X01805001
X01775001Y00445
X01755001
X01735001
X01745001Y00305
X01765001
X01785001
X01805001
X01825001
X01845001
X01835001Y00285
X01815001
X01795001
X01775001
X01755001
X01735001
X01745001Y00265
X01765001
X01785001
X01805001
X01835001Y00245
X01855001
X01875001
X01895001
X01915001
X01935001Y00285
X01955001
X01965001Y00305
X01945001
X01925001
X01905001
X01935001Y00325
X01955001
X01965001Y00225
Y00185
X01905001Y00425
X01725001
X01705001
X01685001
X01665001
X01645001
X01625001
X01605001
X01585001
X01595001Y00445
X01615001
X01635001
X01655001
X01675001
X01695001
X01715001
Y00405
X01695001
X01675001
X01655001
X01635001
X01615001
X01595001
X01575001
X01585001Y00385
X01605001
X01625001
X01645001
X01665001
X01685001
X01705001
X01725001
X01715001Y00365
X01695001
X01675001
X01655001
X01635001
X01615001
X01595001
X01575001
X01585001Y00345
X01605001
X01625001
X01645001
X01665001
X01685001
X01705001
X01725001
X01715001Y00325
X01695001
X01675001
X01655001
X01635001
X01615001
X01595001
X01575001
X01585001Y00305
X01605001
X01625001
X01645001
X01665001
X01685001
X01705001
X01725001
X01715001Y00285
X01695001
X01675001
X01655001
X01635001
X01615001
X01595001
X01575001
X01585001Y00265
X01605001
X01625001
X01645001
X01665001
X01685001
X01705001
X01725001
Y00225
X01705001
X01685001
X01665001
X01645001
X01625001
X01605001
X01585001
X01595001Y00205
X01615001
X01635001
X01655001
X01675001
X01695001
X01715001
X01725001Y00185
X01705001
X01685001
X01665001
X01645001
X01625001
X01605001
X01585001
X01565001
X01545001
X01525001
X01505001
X01485001
X01465001
X01445001
X01425001
X01405001
X01385001
X01365001
X01345001
X01355001Y00205
X01375001
X01395001
X01415001
X01435001
X01455001
X01475001
X01495001
X01515001
X01535001
X01555001
X01575001
Y00165
X01595001
X01615001
X01635001
X01655001
X01675001
X01695001
X01715001
X01725001Y00145
X01705001
X01685001
X01665001
X01645001
X01625001
X01605001
X01585001
X01565001
X01545001
X01525001
X01505001
X01485001
X01465001
X01445001
X01425001
X01405001
X01385001
X01365001
X01345001
X01355001Y00165
X01375001
X01395001
X01415001
X01435001
X01455001
X01475001
X01495001
X01515001
X01535001
X01555001
X01525001Y00225
X0147075Y002305
Y0025125
X01465001Y00265
X0147075Y00272
X01475001Y00285
X01495001
X01515001
X01535001
X01525001Y00305
X01505001
X01485001
X01465001
X01445001
X01425001
X01405001
X01385001
X01365001
X01345001
X01355001Y00325
X01375001
X01365001Y00345
X01345001
X01355001Y00365
X01335001
X01345001Y00385
X01365001
X01385001
X01405001
X01425001
X01445001
X01465001
X01485001
X01505001
X01525001
X01535001Y00405
X01515001
X01495001
X01475001
X01455001
X01435001
X01415001
X01395001
X01375001
X01355001
X01335001
X01345001Y00425
X01365001
X01385001
X01405001
X01425001
X01445001
X0146775Y004265
X014685Y0044625
X01455001Y00445
X01435001
X01415001
X01395001
X01375001
X01355001
X01335001
X01345001Y00465
X01365001
X01385001
X01405001
X01425001
X01445001
X0146775Y0046525
X01475001Y00485
X01495001
X01515001
X01535001
Y00525
X01515001
X01495001
X01475001
X01455001
X01435001
X01415001
X01395001
X01375001
X01355001
X01335001
Y00485
X01355001
X01375001
X01395001
X01415001
X01435001
X01455001
Y00365
X01475001
X01495001
X01515001
X01535001
X01525001Y00345
X01505001
X01485001
X01465001
X01445001
X01425001
X01435001Y00365
X01415001
Y00325
X01435001
X01455001
X01475001
X01495001
X01515001
X01535001
X01455001Y00285
X01435001
X01415001
X01395001
X01375001
X01355001
X01335001
X01345001Y00265
X01365001
X01385001
X01405001
X01425001
X01445001
X01455001Y00245
X01435001
X01415001
X01395001
X01375001
X01355001
X01335001
X01345001Y00225
X01365001
X01385001
X01405001
X01425001
X01445001
X01335001Y00205
Y00165
Y00325
X01575001Y00445
X01315001
X01295001
X01275001
X01255001
X01235001
X01215001
X01225001Y00465
X01245001
X01265001
X01285001
X01305001
X01325001
X01315001Y00485
X01295001
X01275001
X01255001
X01235001
X01215001
X01205001Y00465
Y00425
X01225001
X01245001
X01265001
X01285001
X01305001
X01325001
X01315001Y00405
X01295001
X01275001
X01255001
X01235001
X01215001
X01225001Y00385
X01245001
X01265001
X01285001
X01305001
X01325001
X01315001Y00365
X01295001
X01275001
X01255001
X01235001
X01215001
X01225001Y00345
X01245001
X01265001
X01285001
X01305001
X01325001
X01315001Y00325
X01295001
X01275001
X01255001
X01235001
X01215001
X01225001Y00305
X01245001
X01265001
X01285001
X01305001
X01325001
X01315001Y00285
X01295001
X01275001
X01255001
X01235001
X01215001
X01225001Y00265
X01245001
X01265001
X01285001
X01305001
X01325001
X01315001Y00245
X01295001
X01275001
X01255001
X01235001
X01215001
X01195001
X01175001
X01185001Y00265
X01205001
Y00305
Y00345
Y00385
X01165001
X01145001
X01125001
X01105001
X01085001
X01065001
X01075001Y00405
X01095001
X01115001
X01135001
X01155001
X01175001
X01165001Y00425
X01145001
X01125001
X01105001
X01115001Y00445
X01135001
X01155001
X01175001
X01165001Y00465
X01145001
X01125001
X01105001
X01115001Y00485
X01135001
X01155001
X01175001
Y00525
X01195001
X01215001
X01235001
X01255001
X01275001
X01295001
X01315001
X01155001
X01135001
X01115001
X01095001
X01075001
X01055001
X01035001
X01015001
X00999Y0050975
X0099925Y0048525
X01015001Y00485
X01035001
X01055001
X0105825Y004645
X010405Y0046425
X01025001Y00465
X01005001
X00945001
X00955001Y00485
X0096875Y0049375
X00969573Y00522323
X00945001Y00505
Y00385
X00955001Y00365
X00945001Y00345
X00975001Y00325
X00985001Y00305
X00965001
X00975001Y00285
X00985001Y00265
X00965001
X01025001
X01015001Y00285
X01055001Y00245
X01075001
X01095001
X01115001
X01135001
X01145001Y00265
X01125001
X01135001Y00285
X01155001
X01175001
X01165001Y00305
X01145001
X01125001
X01105001
X01115001Y00325
X01135001
X01155001
X01175001
X01165001Y00345
X01145001
X01125001
X01105001
X01085001
X01065001
X01075001Y00365
X01095001
X01115001
X01135001
X01155001
X01175001
X01115001Y00285
X01145001Y00225
X01165001
X01185001
X01205001
X01225001
X01245001
X01265001
X01285001
X01305001
X01325001
X01315001Y00205
X01295001
X01275001
X01255001
X01235001
X01215001
X01195001
X01175001
X01155001
X01135001
X01145001Y00185
X01165001
X01185001
X01205001
X01225001
X01245001
X01265001
X01285001
X01305001
X01325001
X01315001Y00165
X01295001
X01275001
X01255001
X01235001
X01215001
X01195001
X01175001
X01155001
X01135001
X01115001
X01095001
X01105001Y00185
X01125001
Y00145
X01145001
X01165001
X01185001
X01205001
X01225001
X01245001
X01265001
X01285001
X01305001
X01325001
X01105001
X01085001
X01065001
X01055001Y00165
X01045001Y00185
X01055001Y00205
X01065001Y00225
X01085001
X01095001Y00205
X01045001Y00225
X01009Y00196
X00985001Y00185
X00965001
X00955001Y00165
X00965001Y00145
X00985001
X00945001
Y00225
X0103225Y0015025
X00967Y00398
X01095001Y00445
X00915001
X00895001
X00875001
X00855001
X00835001
X00815001
X00795001
X00775001
X00755001
X00735001
X00715001
X00725001Y00465
X00745001
X00765001
X00785001
X00805001
X00825001
X00845001
X00865001
X00885001
X00905001
X00925001
X00935001Y00485
X00915001
X00895001
X00875001
X00855001
X00835001
X00815001
X00795001
X00775001
X00755001
X00735001
X00715001
X00725001Y00505
X00745001
X00765001
X00785001
X00805001
X00825001
X00845001
X00865001
X00885001
X00905001
X00925001
X00935001Y00525
X00915001
X00895001
X00875001
X00855001
X00835001
X00815001
X00795001
X00775001
X00755001
X00735001
X00715001
X00725001Y00425
X00745001
X00765001
X00755001Y00405
X00735001
X00715001
X00725001Y00385
X00745001
X00755001Y00365
X00735001
X00715001
X00725001Y00345
X00745001
X00765001
X00785001
X00805001
X00825001
X00845001
X00865001
X00855001Y00365
X00865001Y00385
X00845001
X00855001Y00405
X00877Y0039825
X0089475Y003985
X00905001Y00385
X00925001
X00935001Y00405
X00915001
X00925001Y00425
X00905001
X00885001
X00865001
X00845001
X00855001Y00325
X00835001
X00845001Y00305
X00825001
X00855001Y00285
X00875001
X00895001
X00885001Y00305
X00905001Y00345
X00925001
X00935001Y00365
X00915001
Y00245
X00935001
X00925001Y00225
X00915001Y00205
X00895001
X00875001
X00855001
X00835001
X00845001Y00225
X00865001
X00885001
X00875001Y00245
X00855001
X00835001
X00845001Y00265
X00825001Y00225
Y00185
X00845001
X00865001
X00885001
X00905001
X00925001
X00935001Y00165
X00915001
X00895001
X00875001
X00855001
X00865001Y00145
X00885001
X00905001
X00925001
X00745001
X00725001
X00735001Y00165
X00755001
X00765001Y00185
X00745001
X00725001
X00735001Y00205
X00755001
X00775001
X00795001
X00765001Y00225
X00745001
X00725001
X00735001Y00245
X00755001
X00765001Y00265
X00745001
X00725001
X00735001Y00285
X00755001
X00765001Y00305
X00745001
X00725001
X00735001Y00325
X00755001
X00775001
X00795001
X00715001
Y00285
Y00245
Y00205
Y00165
X00525Y00545
X00505
X00485
X00465
X00475Y00565
X00495
X00515
X00535
X00525Y00585
X00505
X00485
X00465
X00475Y00605
X00495
X00515
X00535
Y00645001
X00505Y00625
X00475Y00645001
X00495Y00685001
X00505Y00705001
X00525
X00535Y00725001
X00515
X00495
X00475
X00485Y00745001
X00505
X00525
X00535Y00765001
X00515
X00495
X00475
X00485Y00785001
X00505
X00525
X00495Y00805001
X00465Y00825001
Y00785001
Y00745001
Y00705001
X00485
X00505Y00865001
X00515Y00885001
X00535
X00525Y00905001
X00505
X00485
X00465
X00475Y00925001
Y00885001
X00495
X00555
X00575
X00595
X00605Y00905001
X00585
X00565
X00545
Y00865001
X00565
X00575Y00845001
X00595
X00605Y00865001
X00595Y00805001
X00575
X00555
X00565Y00785001
X00585
X00605
X00595Y00765001
X00575
X00555
X00565Y00745001
X00585
X00605
X00595Y00725001
X00575
X00555
X00565Y00705001
X00585
X00605
X00595Y00685001
X0059Y006735
X00605Y00665001
Y00625
X00585
X00565
X00575Y00605
X00595
X00615
X00635
X00655001
X00675001
X00695001
X00715001
X00735001
X00755001
X00775001
X00795001
X00815001
X00835001
X00855001
X00865001Y00585
X00845001
X00825001
X00805001
X00785001
X00765001
X00745001
X00725001
X00705001
X00685001
X00665001
X00645001
X00625
X00605
X00585
X00565
X00545
X00555Y00605
Y00645001
X00545Y00665001
X00555Y00685001
X00575
X00545Y00705001
Y00745001
Y00785001
X00555Y00845001
X0063625Y0081
X00655001Y00805001
X00675001
X00695001
X00705001Y00825001
X00725001
X00735001Y00845001
X00715001
X00695001
X00685001Y00825001
Y00785001
X00665001
X00645001
X00655001Y00765001
X00635
X00645001Y00745001
X00665001
X00655001Y00725001
X00635
X00645001Y00705001
X00665001
X00655001Y00685001
X00635
X00665001Y00665001
X00685001
X00705001
X00725001
X00745001
X00765001
X00785001
X00805001
X00825001
X00845001
X00865001
X00885001
X00905001
X00925001
X00915001Y00685001
X00895001
X00875001
X00855001
X00835001
X00815001
X00795001
X00775001
X00755001
X00735001
X00715001
X00695001
X00705001Y00705001
X00725001
X00745001
X00765001
X00785001
X00805001
X00825001
X00845001
X00865001
X00885001
X00905001
X00925001
X00915001Y00725001
X00895001
X00875001
X00855001
X00835001
X00815001
X00795001
X00775001
X00755001
X00735001
X00715001
X00695001
X00705001Y00745001
X00725001
X00745001
X00765001
X00785001
X00805001
X00825001
X00845001
X00865001
X00885001
X00905001
X00925001
X00915001Y00765001
X00895001
X00875001
X00855001
X00835001
X00815001
X00795001
X00775001
X00755001
X00735001
X00715001
X00695001
X00725001Y00785001
X00745001
X00765001
X00785001
X00805001
X00825001
X00845001
X00865001
X00885001
X00905001
X00925001
X00915001Y00805001
X00895001
X00875001
X00855001
X00835001
X00815001
X00795001
X00775001
X00755001
X00735001
X00765001Y00825001
X00785001
X00805001
X00825001
X00845001
X00865001
X00885001
X00905001
X00925001
X00915001Y00845001
X00895001
X00875001
X00855001
X00835001
X00815001
X00795001
X00775001
X00765001Y00865001
X00745001
X00725001
X00735001Y00885001
X00755001
X00775001
X00785001Y00905001
X00805001
X00815001Y00925001
X00795001
X00775001
X00765001Y00905001
X00815001Y00885001
X00835001
X00855001
X00875001
X00895001
X00915001
X00925001Y00905001
X00905001
X00885001
X00865001
X00845001
X00855001Y00925001
X00875001
X00895001
X00915001
X00925001Y00865001
X00905001
X00885001
X00865001
X00845001
X00825001
X00805001
X00815001Y00645001
X00835001
X00855001
X00875001
X00895001
X00915001
X00925001Y00625
X00905001
X00885001
X00895001Y00605
X00915001
X00925001Y00585
X00935001Y00565
X00895001
X00875001
X00855001
X00835001
X00815001
X00795001
X00775001
X00755001
X00735001
X00715001
X00695001
X00675001
X00655001
X00635
X00615
X00595
X00575
X00555
X00565Y00545
X00585
X00605
X00625
X00645001
X00665001
X00685001
X00705001
X00725001
X00745001
X00765001
X00785001
X00805001
X00825001
X00845001
X00865001
X00885001
X00905001
X00795001Y00645001
X00775001
X00755001
X00735001
X00715001
X00695001
X00675001
X00545Y00545
X01005001
X01025001
X01045001
X01065001
X01085001
X01105001
X01125001
X01145001
X01165001
X01185001
X01205001
X01225001
X01245001
X01265001
X01285001
X01305001
X01315001Y00565
X01295001
X01275001
X01255001
X01235001
X01215001
X01195001
X01175001
X01155001
X01135001
X01115001
X01095001
X01075001
X01055001
X01035001
X01015001
X00995001
X01005001Y00585
X01025001
X01045001
X01065001
X01085001
X01105001
X01125001
X01145001
X01165001
X01185001
X01205001
X01225001
X01245001
X01265001
X01285001
X01305001
X01315001Y00605
X01295001
X01275001
X01255001
X01235001
X01215001
X01195001
X01175001
X01155001
X01135001
X01115001
X01095001
X01075001
X01055001
X01035001
X01015001
X00995001
X00975001
X00955001
X00965001Y00625
X00985001
X01005001
X01025001
X01045001
X01065001
X01085001
X01105001
X01125001
X01145001
X01165001
X01185001
X01205001
X01225001
X01245001
X01265001
X01285001
X01305001
X01315001Y00645001
X01295001
X01275001
X01255001
X01235001
X01215001
X01195001
X01175001
X01155001
X01135001
X01115001
X01095001
X01075001
X01055001
X01035001
X01015001
X00995001
X00975001
X00955001
X00965001Y00665001
X00985001
X01005001
X01025001
X01045001
X01065001
X01085001
X01105001
X01125001
X01145001
X01165001
X01185001
X01205001
X01225001
X01215001Y00685001
X01195001
X01175001
X01155001
X01135001
X01115001
X01095001
X01075001
X01055001
X01035001
X01015001
X00995001
X00975001
X00955001
X00965001Y00705001
X00985001
X01005001
X01025001
X01045001
X01065001
X01085001
X01105001
X01125001
X01145001
X01165001
X01185001
X01175001Y00725001
X01155001
X01135001
X01115001
X01095001
X01075001
X01055001
X01035001
X01015001
X00995001
X00975001
X00955001
X00965001Y00745001
X00985001
X01005001
X01025001
X01045001
X01065001
X01085001
X01105001
X01125001
X01145001
X01155001Y00765001
X01135001
X01115001
X01095001
X01075001
X01055001
X01035001
X01015001
X00995001
X00975001
X00955001
X00965001Y00785001
X00985001
X00995001Y00805001
X00975001
X00955001
X00965001Y00825001
X00985001
X01005001
X01025001
X01045001
X01065001
X01085001
X01105001
X01125001
X01145001
X01165001
X01175001Y00845001
X01195001
X01205001Y00865001
X01185001
X01165001
X01145001
X01125001
X01105001
X01085001
X01065001
X01045001
X01025001
X01005001
X00985001
X00965001
X00975001Y00885001
X00995001
X01015001
X01035001
X01055001
X01075001
X01095001
X01115001
X01135001
X01155001
X01175001
X01195001
X01205001Y00905001
X01165001
X01145001
X01125001
X01105001
X01085001
X01065001
X01045001
X01025001
X01035001Y00925001
X01055001
X01075001
X01095001
X01115001
X01135001
Y00845001
X01155001
Y00805001
X01135001
X01115001
X01095001
X01075001
X01085001Y00785001
X01105001
X01125001
X01145001
X01165001
X01183562Y00772769
X01205001Y00785001
X01225001
X01215001Y00805001
Y00765001
X01205001Y00745001
X0122725Y0074325
X01245001Y00745001
X01265001
X01285001
X01305001
X01315001Y00765001
X01295001
X01275001
X01255001
X01265001Y00785001
X01285001
X0127925Y00794
X01297
X01305001Y00785001
X01325001
X01317Y007945
X01305001Y00825001
X01265001
X01255001Y00845001
X0127575Y0085575
X0131675Y008555
X01275001Y00925001
X01255001Y00725001
X01235001
X01215001
X01225001Y00705001
X01245001
X01265001
X01285001
X01305001
X01325001
X01315001Y00685001
X01295001
X01275001
X01255001
X01177193Y00743276
X01065001Y00785001
X01075001Y00845001
X01095001
X01115001
X01055001
X01035001
X01015001
X00995001
X00975001
X00955001
Y00885001
X00965001Y00905001
X00985001
X00975001Y00925001
X00955001
X01015001
X00985001Y00585
X00965001
X0133125Y00616
X01335001Y00605
X01355001
X01349Y00616
X01345001Y00585
X01365001
X01395001Y00605
X01415001
X01435001
X01445001Y00585
X01465001
X01495001Y00605
X01515001
X01517Y0064325
X014915Y00643
X0146625Y0064325
X01465001Y00665001
X01485001
X01505001
X01495001Y00685001
X01475001
X01455001
X01435001
X01415001
X01425001Y00705001
X01445001
X014705Y00708
Y007295
X01455001Y00725001
X01435001
X01415001
X01395001
X01405001Y00745001
X01425001
X01445001
X01455001Y00765001
X01475001
X0147025Y00751
X01465001Y00785001
X01445001
X01425001
X01405001
X01415001Y00805001
X01435001
X01455001
X01445001Y00825001
X01425001
X01405001
X01415001Y00845001
X01395001
X01405001Y00865001
X01385001
X01375001Y00885001
X01345001Y00825001
Y00785001
X0133475Y007945
X01335001Y00765001
X01345001Y00745001
X01355001Y00725001
X01335001
X01345001Y00705001
X01355001Y00685001
X01335001
X01355001Y00645001
X0139025Y006435
X0143975Y0064325
X01445001Y00665001
X01405001Y00705001
X01415001Y00765001
X01435001
X01395001
Y00805001
X01483Y00792
X01494Y00782
X01496Y00809
X01515001Y00805001
X01535001
X01555001
X01575001
X01595001
X01615001
X01635001
X01655001
X01675001
X01695001
X01705001Y00785001
X01725001
X01715001Y00765001
X01695001
X01675001
X01655001
X01635001
X01615001
X01595001
X01575001
X01555001
X01565001Y00785001
X01585001
X01605001
X01625001
X01645001
X01665001
X01685001
Y00825001
X01665001
X01645001
X01625001
X01605001
X01585001
X01595001Y00845001
X01615001
X01635001
X01655001
X01645001Y00865001
X01625001
X01605001
X01585001
X01565001
X01575001Y00885001
X01595001
X01615001
X01605001Y00905001
X01585001
X01575001Y00925001
X01555001
Y00885001
X01535001
X01525001Y00905001
X01515001Y00925001
X01495001
X01455001
X01505001Y00865001
X01525001
X01535001Y00845001
X01555001
X01575001
X01515001
X01525001Y00825001
X01505001
X01484Y00821
X01525001Y00785001
X01545001
X01585001Y00745001
X01605001
X01625001
X01645001
X01665001
X01685001
X01705001
X01725001
Y00825001
X01715001Y00845001
X01695001
X01705001Y00865001
X01725001
X01715001Y00885001
X01695001
X01675001
X01655001
X01665001Y00905001
X01685001
X01705001
X01725001
X01715001Y00925001
X01695001
X01675001
X01655001
X01635001
X01615001
X01645001Y00905001
X01685001Y00865001
X01415001Y00565
X01815001
X01835001
X01855001
X01865001Y00545
X01845001
X01825001
X01805001
Y00585
X01825001
X01815001Y00605
X01845001Y00625
X01865001
X01875001Y00645001
X01895001
X01915001
Y00605
X01895001
X01875001
X01855001Y00645001
X01835001
X01845001Y00665001
X01865001
X01875001Y00685001
X01895001
X01855001
X01835001
X01815001
X01795001
X01805001Y00705001
X01825001
X01845001
X01865001
X01875001Y00725001
X01855001
X01835001
X01815001
X01795001
X017785Y0073425
X017555Y00729
X01745001Y00745001
X01735001Y00765001
Y00805001
X01755001
X01745001Y00825001
X01755001Y00845001
X01735001
X01745001Y00865001
X01755001Y00885001
X01735001
X01745001Y00905001
X01735001Y00925001
X0175875Y00924
X01808432Y00923284
X01805001Y00905001
X01815001Y00885001
X01835001
X01855001
X01875001
X01885001Y00865001
X01905001
Y00825001
X01885001
X01865001
X01845001
X01825001
X01805001
X01815001Y00845001
X01835001
X01855001
X01875001
X01865001Y00865001
X01845001
X01825001
X01805001
X01795001Y00885001
Y00845001
Y00805001
X01815001
X01835001
X01855001
X01875001
X01865001Y00785001
X01845001
X01825001
X01805001
X01815001Y00765001
X01835001
X01855001
X01875001
X01865001Y00745001
X01845001
X01825001
X01805001
X01795001Y00765001
X01785001Y00705001
X0177575Y00664
X017595Y0066425
X01805001Y00665001
X01825001
X01965001
Y00705001
Y00745001
Y00785001
Y00825001
Y00865001
Y00905001
X01875001Y00925001
X01855001
X01835001
X01905001Y00785001
Y00745001
X01965001Y00625
Y00585
Y00545
X01915001Y00565
X01941Y00938
X01965001Y00945001
Y00985001
Y01025001
X01941Y0102
X01922
X01905001Y00985001
X01885001
X01865001
X01845001
X01825001
X01805001
X01808432Y00960284
X01805001Y00945001
X01825001
X01845001
X01865001
X01885001
X01875001Y01005001
X01855001
X01835001
X01815001
X01786Y00998
X01758
X0175525Y00962
X01735001Y00965001
X01745001Y00945001
X01767Y01093
X01766Y0111
Y01129
Y01146
Y01164
Y01182
Y0120075
Y01218
Y01235
X01809
Y01218
Y0120075
Y01182
Y01164
X01809Y011465
X01809Y01129
Y0111
X01809432Y01092284
X0188Y01176
X0188325Y012065
X0186675Y01198
X01852Y01255
X01854Y01271
X01841Y0127
X0183325Y01263
X018275Y0125475
X0181925Y0124775
X0185925Y0129
X018625Y01306
X01932Y0132
X01965001Y01305001
X0194525Y01285
X01965001Y01265001
Y01225001
Y01185001
Y01145001
Y01105001
Y01065001
X01715001Y01045001
X01695001
X01675001
X01655001
X01635001
X01615001
X01595001
X01575001
X01555001
X01541Y01046
X01545001Y01065001
X01565001
X01585001
X01605001
X01625001
X01645001
X01665001
X01685001
X01675001Y01085001
X01655001
X01635001
X01615001
X01595001
X01575001
X01555001
Y01125001
X01535001
X01525001Y01105001
X01505001
X014975Y01084
Y010665
X01515001Y01085001
Y01045001
X0146725Y0104775
X01457Y01036
X01467448Y01025433
X0145Y010565
X01435001Y01085001
X01415001
X01395001
X01375001
X01378Y01112
X01385001Y01105001
X01405001
X01425001
X01445001
X01465001
X01475001Y01125001
X01455001
X01435001
X01415001
X01395001
X01375001
X01345001Y01065001
X01355001Y01045001
X01335001
X01345001Y01025001
X01355001Y01005001
X01335001
X01345001Y00985001
X01355001Y00965001
X01335001
X01345001Y00945001
X01437Y00976
X01498Y0097425
X01495001Y00965001
X01498Y0095675
X01515001Y00965001
X01525001Y00945001
X01545001
X01541Y00958
X01565001Y00945001
X01575001Y00965001
X01595001
X01615001
X01635001
X01655001
X01675001
X01695001
X01715001
X01725001Y00945001
X01705001
X01685001
X01665001
X01645001
X01625001
X01605001
Y00985001
X01625001
X01645001
X01665001
X01685001
X01695001Y01005001
X01715001
X01685001Y01025001
X01655001Y01005001
X01635001
X01615001
X01595001
X01575001
X01555001
X01535001
X01585001Y01105001
X01605001
X01625001
X01645001
X016515Y0111825
X0166525Y011185
X01665Y01175
X01688Y01171
X01701Y0117925
X01709Y01186
X01717Y01197
X01709Y0120875
X016985
X016885
X0167775
X0166775Y01209
X01652Y0119575
X01645001Y01225001
X01625001
X01605001
X01585001
X01565001
X01545001
X01525001
X01505001
X01485001
X01465001
X01445001
X01425001
X01405001
X01385001
X01365001
X01345001
X01355001Y01245001
X01375001
X01395001
X01415001
X01435001
X01455001
X01475001
X01495001
X01515001
X01535001
X01555001
X01575001
X01595001
X01615001
X01635001
X01655001
X01675001
X01685001Y01265001
X01665001
X01645001
X01625001
X01605001
X01585001
X01565001
X01545001
X01525001
X01505001
X01485001
X01465001
X01445001
X01425001
X01405001
X01345001
X01335001Y01245001
X01315001
X01325001Y01265001
X01305001
X01285Y01219
X01257Y01205
X0125975Y01186
X01255Y01169
X01252Y01144
X01205001Y01145001
X01185001
X01165001
X01145001
X01125001
X01105001
X01085001
X01095001Y01165001
X01115001
X01135001
X01155001
X01175001
X01165001Y01185001
X01145001
X01125001
X01105001
X01085001
X01065001
X01045001
X01025001
X01005001
X00985001
X00965001
X00945001
X00955001Y01205001
X00975001
X00995001
X01015001
X01035001
X01055001
X01075001
X01095001
X01115001
X01135001
X01155001
X01175001
X0117525Y01219
X01165001Y01225001
X01145001
X01125001
X01105001
X01085001
X01065001
X01045001
X01025001
X01005001
X00985001
X00965001
X00945001
X00955001Y01245001
X00975001
X00995001
X01015001
X01035001
X01055001
X01075001
X01095001
X01115001
X01135001
X01155001
X01175001
X01196812Y01252186
X01165001Y01265001
X01145001
X01125001
X01105001
X01065001
X01045001
X01025001
X01005001
X00985001
X00965001
X00945001
X00955001Y01165001
X00975001
X00995001
X01015001
X01035001
X01055001
X01045001Y01145001
X01025001
X01005001
X00985001
X00965001
X00945001
X00955001Y01125001
X00975001
X00995001
X01015001
X01005001Y01105001
X00985001
X00965001
X00945001
X00955001Y01085001
X00975001
X00965001Y01065001
X00945001
X01005Y01059
X0100475Y01042
X00995001Y01045001
X00985001Y01025001
X0100475Y01023
X00995001Y01005001
X00975001
X00955001
X00965001Y00985001
X00955001Y00965001
X009445Y00964
X00945882Y00945484
X0094025Y0093625
X00985001Y00945001
X01005001
X01025001
X01045001
X01065001
X01073Y0095125
Y00936
X0107275Y009685
X010725Y0098575
X0107275Y009985
X010725Y0101575
X0107275Y0103225
X010725Y0104775
X01055001Y01045001
Y01085001
X01075001
X0107225Y0109725
X01065001Y01105001
X01072Y011145
X01075001Y01125001
X01095001
X01115001
X01135001
X01155001
X01175001
X01195001
X01203Y01112
X01185001Y01105001
X01165001
X01145001
X01175001Y01085001
X01195001
X01225001Y01065001
X01245001
X01265001
X01285001
X01305001
X01325001
X01315001Y01045001
X01295001
X01275001
X01255001
X01235001
X01215001
X01225001Y01025001
X01245001
X01265001
X01285001
X01305001
X01325001
X01315001Y01005001
X01295001
X01275001
X01255001
X01235001
X01215001
X01225001Y00985001
X01245001
X01265001
X01285001
X01305001
X01325001
X01315001Y00965001
X01295001
X01275001
X01255001
X01235001
X01245001Y00945001
X01265001
X01285001
X01325001
X01225001
X01145001
X01145Y00975
X01145001Y00985001
X01045001
X01055001Y01005001
X01035001
Y00965001
X01055001
X00995001
X01005066Y00990934
X01015001Y01085001
X01035001
X01045001Y01105001
X01055001Y01125001
X01095001Y01085001
X01315001Y01205001
X00935001
X00915001
X00895001
X00875001
X00855001
X00835001
X00815001
X00825001Y01225001
X00845001
X00865001
X00885001
X00905001
X00925001
X00935001Y01245001
X00915001
X00895001
X00875001
X00855001
X00865001Y01265001
X00885001
X00905001
X00925001
Y01185001
X00905001
X00885001
X00865001
X00845001
X00825001
X00805001
X00785001
X00795001Y01165001
X00815001
X00835001
X00855001
X00875001
X00895001
X00915001
X00935001
X00925001Y01145001
X00905001
X00885001
X00865001
X00845001
X00825001
X00805001
X00785001
X00765001
X00745001
X00725001
X00705001
X00685001
X00665001
X00645001
X00625
X00605
X00585
X00565
X00545
X00555Y01165001
X00575
X00595
X00615
X00635
X00655001
X00675001
X00695001
X00715001
X00735001
X00755001
X00775001
Y01125001
X00795001
X00815001
X00835001
X00855001
X00875001
X00895001
X00915001
X00935001
X00925001Y01105001
X00905001
X00885001
X00865001
X00845001
X00825001
X00805001
X00785001
X00765001
X00745001
X00725001
X00705001
X00685001
X00665001
X00645001
X00625
X00605
X00585
X00565
X00545
X00555Y01125001
X00575
X00595
X00615
X00635
X00655001
X00675001
X00695001
X00715001
X00735001
X00755001
Y01085001
X00775001
X00795001
X00815001
X00835001
X00855001
X00875001
X00895001
X00915001
X00935001
X00925001Y01065001
X00905001
X00885001
X00865001
X00845001
X00825001
X00805001
X00785001
X00765001
X00745001
X00725001
X00705001
X00685001
X00665001
X00645001
X00625
X00605
X00585
X00565
X00545
X00555Y01085001
X00575
X00595
X00615
X00635
X00655001
X00675001
X00695001
X00715001
X00735001
Y01045001
X00755001
X00775001
X00795001
X00815001
X00835001
X00855001
X00875001
X00895001
X00915001
X00935001
X00925001Y01025001
X00905001
X00885001
X00865001
X00845001
X00825001
X00805001
X00785001
X00765001
X00745001
X00725001
X00705001
X00685001
X00665001
X00645001
X00625
X00605
X00585
X00595Y01045001
X00615
X00635
X00655001
X00675001
X00695001
X00715001
Y01005001
X00735001
X00755001
X00775001
X00795001
X00815001
X00835001
X00855001
X00875001
X00895001
X00885001Y00985001
X00865001
X00845001
X00825001
X00805001
X00785001
X00765001
X00745001
X00725001
X00705001
X00685001
X00665001
X00645001
X00655001Y01005001
X00675001
X00695001
Y00965001
X00715001
X00735001
X00755001
X00775001
X00795001
X00815001
X00835001
X00855001
X0085925Y00945484
X0087775Y0096375
X00929Y00964
X00675001Y00965001
X00655001
X00635
X00617Y00964
Y00949
X00605Y00945001
X00585
Y00985001
X00565
X00545
X00555Y01005001
X00575
X00615
X00635
X00575Y01045001
X00545Y01025001
X00525
X00505
X00485
X00465
X00445
X00425
X00405
X00385
X00365
X00345
X00325
X00305
X00285
X00265
X00245
X00225
X00205
X00185
X00165
X00145
X00155Y01005001
X00175
X00195
X00215
X00235
X00255
X00275
X00295
X00315
X00335
X00355
X00375
X00395
X00415
X00435
X00455
X00475
X00495
X00515
X00535
X00525Y00985001
X00505
X00485
X00465
X00495Y00965001
X00515
X00535
X00525Y00945001
X00505
Y01065001
X00525
X00535Y01085001
X00515
X00495
X00475
X00455
X00435
X00415
X00395
X00375
X00355
X00335
X00315
X00295
X00275
X00255
X00235
X00215
X00195
X00175
X00155
X00165Y01105001
X00185
X00205
X00225
X00245
X00265
X00285
X00305
X00325
X00345
X00365
X00385
X00405
X00425
X00445
X00465
X00485
X00505
X00525
X00535Y01125001
X00515
X00495
X00475
X00455
X00435
X00415
X00395
X00375
X00355
X00335
X00315
X00295
X00275
X00255
X00235
X00215
X00195
X00175
X00155
X00165Y01145001
X00185
X00205
X00225
X00245
X00265
X00285
X00305
X00325
X00345
X00365
X00385
X00405
X00425
X00445
X00465
X00485
X00505
X00525
X00535Y01165001
X00515
X00495
X00475
X00455
X00435
X00415
X00395
X00375
X00355
X00335
X00315
X00295
X00275
X00255
X00235
X00215
X00195
X00175
X00155
X00145Y01145001
Y01065001
X00165
X00185
X00205
X00225
X00245
X00265
X00285
X00305
X00325
X00345
X00365
X00385
X00405
X00425
X00445
X00465
X00485
X00125
Y01025001
X00105
X00085
X00065
X00045
X00025
X00035Y01045001
X00055
X00075
Y01005001
X00095
X00115
X00135
X00055
X00035
X00045Y01065001
X00025
X00035Y01085001
X00045Y01105001
X00065
Y01145001
X00045
X00025
X00035Y01165001
X00045Y01185001
X00065
X00085
X00095Y01165001
X00115
X00135
X00075
Y01205001
X00065Y01225001
X00045
X00025
X00035Y01245001
X00045Y01265001
X00065
X00085
X00075Y01285001
X00065Y01305001
X00045
X00025
X00035Y01325001
X00075
Y01245001
X00025Y01265001
X00035Y01285001
Y01205001
X00025Y01185001
X00035Y01125001
X00025Y01105001
Y01345001
X00045
X00065
X00085
X00105
X00075Y01365001
X00065Y01385001
X00045
X00025
X00035Y01405001
X00045Y01425001
X00025
X00035Y01445001
X00055
X00065Y01465001
X00045
X00025
X00035Y01485001
X00055
X00075
X00085Y01505001
X00065
X00045
X00025
X00035Y01525001
X00055
X00075
X00095
X00115
X00135
X00065Y01545001
X00045
X00025
X00035Y01565001
X00055
X00065Y01585001
X00045
X00025
X00035Y01605001
X00055
X00065Y01625001
X00085
X00095Y01645001
X00115
X00135
X00125Y01665001
X00105
X00085
X00065
X00045
X00025
X00035Y01685001
X00055
X00075
X00095
X00115
X00135
X00125Y01625001
X00075Y01645001
X00055
X00035
X00045Y01625001
X00025
X00085Y01425001
X00075Y01405001
X00115Y01445001
X00035Y01365001
X00155Y01445001
X00175
X00195
X00215
X00235
X00255
X00275
X00295
X00315
X00335
X00355
X00375
X00395
X00415
X00435
X00455
X00475
X00495
X00515
X00535
X00525Y01465001
X00505
X00485
X00465
X00445
X00425
X00405
X00385
X00365
X00345
X00325
X00305
X00285
X00265
X00245
X00225
X00205
X00185
X00165
X00145
X00155Y01485001
X00175
X00195
X00215
X00235
X00255
X00275
X00295
X00315
X00335
X00355
X00375
X00395
X00415
X00435
X00455
X00475
X00495
X00515
X00535
X00525Y01505001
X00505
X00485
X00465
X00445
X00425
X00405
X00385
X00365
X00345
X00325
X00305
X00285
X00265
X00245
X00225
X00205
X00185
X00165
X00145
X00155Y01525001
X00175
X00195
X00215
X00235
X00255
X00275
X00295
X00315
X00335
X00355
X00375
X00395
X00415
X00435
X00455
X00475
X00495
X00515
X00535
X00525Y01545001
X00505
X00485
X00465
X00445
X00425
X00405
X00385
X00365
X00345
X00325
X00305
X00285
X00265
X00245
X00225
X00205
X00185
X00165
X00145
X00155Y01565001
X00175
X00195
X00215
X00235
X00255
X00275
X00295
X00315
X00335
X00355
X00375
X00395
X00415
X00435
X00455
X00475
X00495
X00515
X00535
X00525Y01585001
X00505
X00485
X00465
X00445
X00425
X00405
X00385
X00365
X00345
X00325
X00305
X00285
X00265
X00245
X00225
X00205
X00185
X00165
X00175Y01605001
X00195
X00215
X00235
X00255
X00275
X00295
X00315
X00335
X00355
X00375
X00395
X00415
X00435
X00455
X00475
X00495
X00515
X00535
X00525Y01625001
X00505
X00485
X00465
X00445
X00425
X00405
X00385
X00365
X00345
X00325
X00305
X00285
X00265
X00245
X00225
X00205
X00185
X00165
X00145
X00155Y01645001
X00175
X00195
X00215
X00235
X00255
X00275
X00295
X00315
X00335
X00355
X00375
X00395
X00415
X00435
X00455
X00475
X00495
X00515
X00535
X00525Y01665001
X00505
X00485
X00465
X00445
X00425
X00405
X00385
X00365
X00345
X00325
X00305
X00285
X00265
X00245
X00225
X00205
X00185
X00165
X00145
X00155Y01685001
X00175
X00195
X00215
X00235
X00255
X00275
X00295
X00315
X00335
X00355
X00375
X00395
X00415
X00435
X00455
X00475
X00495
X00515
X00535
X00155Y01605001
X00555
X00575
X00595
X00615
X00635
X00655001
X00675001
X00695001
X00715001
X00735001
X00755001
X00775001
X00795001
X00815001
X00835001
X00855001
X00865001Y01625001
X00885001
X00905001
X00925001
X00935001Y01645001
X00915001
X00895001
X00875001
X00855001
X00835001
X00815001
X00795001
X00775001
X00755001
X00735001
X00715001
X00695001
X00675001
X00655001
X00635
X00615
X00595
X00575
X00555
X00565Y01665001
X00585
X00605
X00625
X00645001
X00665001
X00685001
X00705001
X00725001
X00745001
X00765001
X00785001
X00805001
X00825001
X00845001
X00865001
X00885001
X00905001
X00925001
X00935001Y01685001
X00915001
X00895001
X00875001
X00855001
X00835001
X00815001
X00795001
X00775001
X00755001
X00735001
X00715001
X00695001
X00675001
X00655001
X00635
X00615
X00595
X00575
X00555
X00545Y01665001
Y01625001
X00565
X00585
X00605
X00625
X00645001
X00665001
X00685001
X00705001
X00725001
X00745001
X00765001
X00785001
X00805001
X00825001
X00845001
X00825001Y01585001
X00805001
X00785001
X00765001
X00745001
X00725001
X00705001
X00685001
X00665001
X00645001
X00625
X00605
X00585
X00565
X00545
X00555Y01565001
X00575
X00595
X00615
X00635
X00655001
X00675001
X00695001
X00715001
X00735001
X00755001
X00775001
X00795001
X00815001
X00785001Y01545001
X00765001
X00745001
X00725001
X00705001
X00685001
X00665001
X00645001
X00625
X00605
X00585
X00565
X00545
X00555Y01525001
X00575
X00595
X00615
X00635
X00655001
X00675001
X00695001
X00715001
X00735001
X00755001
X00775001
X00745001Y01505001
X00725001
X00705001
X00685001
X00665001
X00645001
X00625
X00605
X00585
X00565
X00545
X00555Y01485001
X00575
X00595
X00615
X00635
X00655001
X00675001
X00695001
X00715001
X00735001
X00705001Y01465001
X00685001
X00665001
X00645001
X00625
X00605
X00585
X00565
X00545
X00555Y01445001
X00575
X00595
X00615
X00635
X00655001
X00675001
X00695001
X00945001Y01625001
X00965001
X00985001
X01005001
X01025001
X01045001
X01065001
X01085001
X01105001
X01125001
X01145001
X01165001
X01185001
X01205001
X01225001
X01245001
X01265001
X01285001
X01305001
X01325001
X01315001Y01685001
X01295001
X01275001
X01255001
X01235001
X01215001
X01195001
X01175001
X01155001
X01135001
X01115001
X01095001
X01075001
X01055001
X01035001
X01015001
X00995001
X00975001
X00955001
X00965001Y01665001
X00985001
X01005001
X01025001
X01045001
X01065001
X01085001
X01105001
X01125001
X01145001
X01165001
X01185001
X01205001
X01225001
X01245001
X01265001
X01255001Y01645001
X01235001
X01215001
X01195001
X01175001
X01155001
X01135001
X01115001
X01095001
X01075001
X01055001
X01035001
X01015001
X00995001
X00975001
X00955001
X00945001Y01665001
X01345001
X01365001
X01385001
X01405001
X01425001
X01445001
X01465001
X01485001
X01505001
X01525001
X01545001
X01565001
X01585001
X01605001
X01625001
X01645001
X01665001
X01685001
X01705001
X01725001
X01715001Y01685001
X01695001
X01675001
X01655001
X01635001
X01615001
X01595001
X01575001
X01555001
X01535001
X01515001
X01495001
X01475001
X01455001
X01435001
X01415001
X01395001
X01375001
X01355001
X01335001
Y01645001
X01355001
X01375001
X01395001
X01415001
X01435001
X01455001
X01475001
X01495001
X01515001
X01535001
X01555001
X01575001
X01595001
X01615001
X01635001
X01655001
X01675001
X01695001
X01715001
X01725001Y01625001
X01705001
X01685001
X01665001
X01645001
X01625001
X01605001
X01585001
X01565001
X01545001
X01525001
X01505001
X01485001
X01465001
X01445001
X01425001
X01405001
X01385001
X01365001
X01345001
X01745001
X01765001
X01785001
X01805001
X01825001
X01845001
X01865001
X01885001
X01905001
X01925001
X01945001
X01965001
X01955001Y01645001
X01935001
X01915001
X01895001
X01875001
X01855001
X01835001
X01815001
X01795001
X01775001
X01755001
X01735001
X01745001Y01665001
X01765001
X01785001
X01805001
X01825001
X01845001
X01865001
X01885001
X01905001
X01925001
X01945001
X01935001Y01685001
X01915001
X01895001
X01875001
X01855001
X01835001
X01815001
X01795001
X01775001
X01755001
X01735001
X01835001Y01605001
X01855001
X01875001
X01895001
X01915001
X01935001
X01955001
X01965001Y01585001
X01945001
X01925001
X01905001
X01885001
X01865001
X01845001
X01875001Y01565001
X01895001
X01915001
X01935001
X01955001
X01965001Y01545001
X01945001
X01925001
X01905001
X01885001
X01895001Y01525001
X01915001
X01935001
X01955001
X01965001Y01505001
Y01465001
X01955001Y01445001
X01935001
X01915001
X01925001Y01465001
X01905001
X01915001Y01485001
X01895001
X01905001Y01505001
X01885001
Y01425001
X01905001
X01945001
X01965001
X01955001Y01405001
X01935Y01397
X01946397Y01384259
X01965001Y01385001
Y01345001
T02
X00583Y0086425
X00703
X012855Y00727
X013105
X015465Y00826
X015715
X015705Y00899
X015455
X01588Y00978
Y0102
X01708
Y00978
X01377Y01268
X01257
X01205
X01085
T03
X01288532Y0003786
X01313932
X01046154Y00791992
X01020754
X012875Y0166
X013129
T04
X01891Y002855
X01916
Y00323
X01891
Y003605
X01916
Y00398
X01891
Y004355
X01916
Y00473
X01891
Y005105
X01916
Y00548
X01891
Y005855
X01916
Y00623
X01891
Y006605
X01916
Y00698
X01891
Y007355
X01916
Y00773
X01891
Y008105
X01916
Y00848
X01891
Y008855
X01916
Y00923
X01891
Y009605
X01916
Y00998
X01891
Y010355
X01916
Y01073
X01891
Y011105
X01916
Y01148
X01891
Y011855
X01916
Y01223
X01891
Y012605
X01916
Y01298
X01891
X005512Y00965
Y009396
X00475
Y00965
X01891Y013355
X01916
Y01373
X01891
Y014105
X01916
T05
X013264Y005476
Y00573
X013518
X013772
X014026
X01428
X014534
X014788
X015042
X015296
Y005476
X01555
Y00573
X015042Y005476
X014788
X014534
X01428
X014026
X013772
X013518
T06
X007856Y0022575
Y0025325
Y0028075
Y0030825
X00814Y00322
Y002945
Y00267
Y002395
Y00215
X00126Y0118
Y012075
Y01235
Y012625
Y0129
Y013175
X000976Y0133125
Y0130375
Y0127625
Y0124875
Y0122125
Y0119375
Y0135875
Y0138625
Y0141375
Y0144125
Y0146875
Y0149625
X00126Y0151
Y014825
Y01455
Y014275
Y014
Y013725
Y01345
T07
X01555Y00323
Y003485
Y00374
X01241Y00799
X01192
T08
X00502Y00651
X005Y0083
T09
X004766Y006256
Y006764
X005274
Y006256
X005254Y008046
Y008554
X004746
Y008046
T10
X007998Y00142
Y00392
X001118Y0111
Y0158
T11
X019415Y00208
X01941Y01488
T12
X013925Y003485
M30
